<?xml version="1.0" encoding="utf-8"?>
<svg version="1.1" id="Layer_1" x="0px" y="0px" viewBox="0 0 512 512" style="enable-background:new 0 0 512 512;" xmlns="http://www.w3.org/2000/svg">
  <path d="M 479.031 195.129 C 474.921 186.419 466.015 180.841 456.425 180.841 L 306.106 180.841 L 306.106 30.522 C 306.106 19.953 299.451 10.46 289.469 6.937 C 279.487 3.414 268.331 6.448 261.676 14.668 L 36.198 290.253 C 30.032 297.69 28.76 308.064 32.968 316.872 C 37.079 325.582 45.984 331.16 55.575 331.16 L 205.894 331.16 L 205.894 481.478 C 205.894 492.048 212.548 501.541 222.53 505.064 C 232.513 508.587 243.669 505.553 250.324 497.332 L 475.802 221.748 C 481.967 214.31 483.239 203.937 479.031 195.129 Z M 256 411.31 L 256 306.107 C 256 299.55 253.357 293.091 248.66 288.393 C 243.963 283.696 237.504 281.054 230.947 281.054 L 108.421 281.054 L 256 100.691 L 256 205.894 C 256 212.451 258.642 218.91 263.34 223.608 C 268.037 228.305 274.496 230.947 281.053 230.947 L 403.578 230.947 L 256 411.31 Z" style="paint-order: fill; stroke-width: 10px; fill: rgb(122, 223, 181); stroke: rgba(108, 255, 194, 0.51); stroke-opacity: 0.6;"/>
</svg>